<svg width="229" height="51" viewBox="0 0 229 51" fill="none" xmlns="http://www.w3.org/2000/svg">
<path d="M19.0345 5.75522L38.0801 16.7552V14.8067L28.5007 9.25522L19.0345 3.75513L0.000732422 14.7552V16.7552L19.0345 5.75522Z" fill="white"/>
<path d="M19.0345 9.75534L38.0801 20.7553V18.8068L28.5007 13.2553L19.0345 7.75525L0.000732422 18.7553V20.7553L19.0345 9.75534Z" fill="white"/>
<path d="M24.1688 35.6121V28.1422L30.6193 24.4086V19.7688L20.3625 13.8258V37.7819M13.9111 29.2552V35.6075L17.7175 37.7829V27.0035M17.7175 24.4095V13.8267L13.9111 16.038V23.5033L11.2293 25.0257V17.5603L7.46069 19.7706V31.8758L11.2293 34.0511V28.144M24.1679 25.0266V19.1195L26.8498 20.6778V23.5042L24.1679 25.0266Z" fill="white"/>
<path d="M38 22.8367V36.6285L23.536 44.7146L19.0092 47.2449L14.4824 44.7146L0 36.6187V22.8269L4.54796 20.2449V34.1L19.0092 42.1834L33.452 34.1098V20.2556L38 22.8367Z" fill="white"/>
<path d="M57.8301 25.5V19.875H65.3301V25.5H69.0801V10.5H65.3301V16.2H57.8301V10.5H54.0801V25.5H57.8301ZM71.3223 10.5L78.0473 18.675V25.5H81.7973V18.675L88.5223 10.5H83.6473C82.2473 12.2 81.3223 13.325 79.9223 15.05L76.2223 10.5H71.3223ZM94.5244 25.5V20.5H100.774C104.124 20.5 105.774 18.85 105.774 15.5C105.774 12.15 104.124 10.5 100.774 10.5H90.7744V25.5H94.5244ZM94.5244 14.25H100.774C101.624 14.25 101.999 14.65 102.024 15.5C102.049 16.5 101.624 16.85 100.774 16.85H94.5244V14.25ZM122.767 21.775H111.517V19.875H117.142V16.15H111.517V14.275H122.767V10.5H107.767V25.5H122.767V21.775ZM128.509 25.5V20.5H132.784L135.709 25.5H140.134L136.959 20.2C138.834 19.575 139.759 18.025 139.759 15.5C139.759 12.15 138.109 10.5 134.759 10.5H124.759V25.5H128.509ZM128.509 14.175H134.759C135.609 14.175 136.009 14.65 136.009 15.5C136.009 16.35 135.609 16.825 134.759 16.825H128.509V14.175ZM157.017 15C157.017 12.525 155.767 10.5 152.392 10.5H142.642V25.5H152.642C155.992 25.5 157.642 23.45 157.642 20.5C157.642 19.15 157.317 18.075 156.667 17.325C156.917 16.625 157.017 15.825 157.017 15ZM146.392 19.625H152.817C153.542 19.675 153.892 20.175 153.892 20.725C153.892 21.475 153.492 22 152.642 22H146.392V19.625ZM146.392 14H152.267C152.892 14 153.217 14.625 153.217 15.05C153.217 15.5 152.917 16.125 152.342 16.125H146.392V14ZM168.777 25.5C172.527 25.5 174.402 23.625 174.402 19.875V16.125C174.402 12.375 172.527 10.5 168.777 10.5H165.027C161.277 10.5 159.402 12.375 159.402 16.125V19.875C159.402 23.625 161.277 25.5 165.027 25.5H168.777ZM165.027 21.825C163.777 21.825 163.152 21.2 163.152 19.95V16.075C163.152 14.825 163.777 14.2 165.027 14.2H168.777C170.027 14.2 170.652 14.825 170.652 16.075V19.95C170.652 21.2 170.027 21.825 168.777 21.825H165.027ZM176.785 10.5V25.5H190.535V21.825H180.535V10.5H176.785ZM196.882 25.5V10.5H193.132V25.5H196.882ZM214.271 21.8H204.896C203.646 21.8 203.021 21.175 203.021 19.925V16.075C203.021 14.825 203.646 14.2 204.896 14.2H214.271V10.5H204.896C201.146 10.5 199.271 12.375 199.271 16.125V19.875C199.271 23.625 201.146 25.5 204.896 25.5H214.271V21.8Z" fill="white"/>
<path d="M56.8801 41.5V37.5H61.8801C64.5601 37.5 65.8801 36.18 65.8801 33.5C65.8801 30.82 64.5601 29.5 61.8801 29.5H53.8801V41.5H56.8801ZM56.8801 32.5H61.8801C62.5601 32.5 62.8601 32.82 62.8801 33.5C62.9001 34.3 62.5601 34.58 61.8801 34.58H56.8801V32.5ZM70.1138 41.5V37.5H73.5338L75.8738 41.5H79.4138L76.8738 37.26C78.3738 36.76 79.1138 35.52 79.1138 33.5C79.1138 30.82 77.7938 29.5 75.1138 29.5H67.1138V41.5H70.1138ZM70.1138 32.44H75.1138C75.7938 32.44 76.1138 32.82 76.1138 33.5C76.1138 34.18 75.7938 34.56 75.1138 34.56H70.1138V32.44ZM88.1601 41.5C91.1601 41.5 92.6601 40 92.6601 37V34C92.6601 31 91.1601 29.5 88.1601 29.5H85.1601C82.1601 29.5 80.6601 31 80.6601 34V37C80.6601 40 82.1601 41.5 85.1601 41.5H88.1601V38.56H85.1601C84.1601 38.56 83.6601 38.06 83.6601 37.06V33.96C83.6601 32.96 84.1601 32.46 85.1601 32.46H88.1601C89.1601 32.46 89.6601 32.96 89.6601 33.96V37.06C89.6601 38.06 89.1601 38.56 88.1601 38.56V41.5ZM101.706 41.5V32.42H106.206V29.5H94.2063V32.42H98.7063V41.5H101.706ZM114.94 41.5C117.94 41.5 119.44 40 119.44 37V34C119.44 31 117.94 29.5 114.94 29.5H111.94C108.94 29.5 107.44 31 107.44 34V37C107.44 40 108.94 41.5 111.94 41.5H114.94V38.56H111.94C110.94 38.56 110.44 38.06 110.44 37.06V33.96C110.44 32.96 110.94 32.46 111.94 32.46H114.94C115.94 32.46 116.44 32.96 116.44 33.96V37.06C116.44 38.06 115.94 38.56 114.94 38.56V41.5ZM132.986 38.54H125.486C124.486 38.54 123.986 38.04 123.986 37.04V33.96C123.986 32.96 124.486 32.46 125.486 32.46H132.986V29.5H125.486C122.486 29.5 120.986 31 120.986 34V37C120.986 40 122.486 41.5 125.486 41.5H132.986V38.54ZM142.13 41.5C145.13 41.5 146.63 40 146.63 37V34C146.63 31 145.13 29.5 142.13 29.5H139.13C136.13 29.5 134.63 31 134.63 34V37C134.63 40 136.13 41.5 139.13 41.5H142.13V38.56H139.13C138.13 38.56 137.63 38.06 137.63 37.06V33.96C137.63 32.96 138.13 32.46 139.13 32.46H142.13C143.13 32.46 143.63 32.96 143.63 33.96V37.06C143.63 38.06 143.13 38.56 142.13 38.56V41.5ZM148.176 29.5V41.5H159.176V38.56H151.176V29.5H148.176Z" fill="white"/>
</svg>
