<svg width="185" height="94" viewBox="0 0 185 94" fill="none" xmlns="http://www.w3.org/2000/svg">
<path d="M92.4945 2.00009L111.54 13.0001V11.0516L101.961 5.50009L92.4945 0L73.4607 11.0001V13.0001L92.4945 2.00009Z" fill="url(#paint0_linear_359_5269)"/>
<path d="M92.4945 6.00021L111.54 17.0002V15.0517L101.961 9.50021L92.4945 4.00012L73.4607 15.0002V17.0002L92.4945 6.00021Z" fill="url(#paint1_linear_359_5269)"/>
<path d="M97.6288 31.857V24.3871L104.079 20.6535V16.0137L93.8225 10.0707V34.0268M87.3711 25.5V31.8524L91.1774 34.0277V23.2484M91.1774 20.6544V10.0716L87.3711 12.2828V19.7482L84.6892 21.2705V13.8052L80.9207 16.0155V28.1207L84.6892 30.296V24.3889M97.6279 21.2715V15.3644L100.31 16.9227V19.7491L97.6279 21.2715Z" fill="white"/>
<path d="M111.46 19.0816V32.8734L96.996 40.9594L92.4692 43.4897L87.9424 40.9594L73.46 32.8635V19.0718L78.0079 16.4897V30.3448L92.4692 38.4283L106.912 30.3547V16.5005L111.46 19.0816Z" fill="url(#paint2_linear_359_5269)"/>
<path d="M14.75 68.4897V62.8647H22.25V68.4897H26V53.4897H22.25V59.1897H14.75V53.4897H11V68.4897H14.75ZM28.2422 53.4897L34.9672 61.6647V68.4897H38.7172V61.6647L45.4422 53.4897H40.5672C39.1672 55.1897 38.2422 56.3147 36.8422 58.0397L33.1422 53.4897H28.2422ZM51.4443 68.4897V63.4897H57.6943C61.0443 63.4897 62.6943 61.8397 62.6943 58.4897C62.6943 55.1397 61.0443 53.4897 57.6943 53.4897H47.6943V68.4897H51.4443ZM51.4443 57.2397H57.6943C58.5443 57.2397 58.9193 57.6397 58.9443 58.4897C58.9693 59.4897 58.5443 59.8397 57.6943 59.8397H51.4443V57.2397ZM79.6865 64.7647H68.4365V62.8647H74.0615V59.1397H68.4365V57.2647H79.6865V53.4897H64.6865V68.4897H79.6865V64.7647ZM85.4287 68.4897V63.4897H89.7037L92.6287 68.4897H97.0537L93.8787 63.1897C95.7537 62.5647 96.6787 61.0147 96.6787 58.4897C96.6787 55.1397 95.0287 53.4897 91.6787 53.4897H81.6787V68.4897H85.4287ZM85.4287 57.1647H91.6787C92.5287 57.1647 92.9287 57.6397 92.9287 58.4897C92.9287 59.3397 92.5287 59.8147 91.6787 59.8147H85.4287V57.1647ZM113.937 57.9897C113.937 55.5147 112.687 53.4897 109.312 53.4897H99.5615V68.4897H109.562C112.912 68.4897 114.562 66.4397 114.562 63.4897C114.562 62.1397 114.237 61.0647 113.587 60.3147C113.837 59.6147 113.937 58.8147 113.937 57.9897ZM103.312 62.6147H109.737C110.462 62.6647 110.812 63.1647 110.812 63.7147C110.812 64.4647 110.412 64.9897 109.562 64.9897H103.312V62.6147ZM103.312 56.9897H109.187C109.812 56.9897 110.137 57.6147 110.137 58.0397C110.137 58.4897 109.837 59.1147 109.262 59.1147H103.312V56.9897ZM125.697 68.4897C129.447 68.4897 131.322 66.6147 131.322 62.8647V59.1147C131.322 55.3647 129.447 53.4897 125.697 53.4897H121.947C118.197 53.4897 116.322 55.3647 116.322 59.1147V62.8647C116.322 66.6147 118.197 68.4897 121.947 68.4897H125.697ZM121.947 64.8147C120.697 64.8147 120.072 64.1897 120.072 62.9397V59.0647C120.072 57.8147 120.697 57.1897 121.947 57.1897H125.697C126.947 57.1897 127.572 57.8147 127.572 59.0647V62.9397C127.572 64.1897 126.947 64.8147 125.697 64.8147H121.947ZM133.705 53.4897V68.4897H147.455V64.8147H137.455V53.4897H133.705ZM153.802 68.4897V53.4897H150.052V68.4897H153.802ZM171.19 64.7897H161.815C160.565 64.7897 159.94 64.1647 159.94 62.9147V59.0647C159.94 57.8147 160.565 57.1897 161.815 57.1897H171.19V53.4897H161.815C158.065 53.4897 156.19 55.3647 156.19 59.1147V62.8647C156.19 66.6147 158.065 68.4897 161.815 68.4897H171.19V64.7897Z" fill="url(#paint3_linear_359_5269)"/>
<path d="M40.8 84.4897V80.4897H45.8C48.48 80.4897 49.8 79.1697 49.8 76.4897C49.8 73.8097 48.48 72.4897 45.8 72.4897H37.8V84.4897H40.8ZM40.8 75.4897H45.8C46.48 75.4897 46.78 75.8097 46.8 76.4897C46.82 77.2897 46.48 77.5697 45.8 77.5697H40.8V75.4897ZM54.0338 84.4897V80.4897H57.4538L59.7938 84.4897H63.3338L60.7938 80.2497C62.2938 79.7497 63.0338 78.5097 63.0338 76.4897C63.0338 73.8097 61.7138 72.4897 59.0338 72.4897H51.0338V84.4897H54.0338ZM54.0338 75.4297H59.0338C59.7138 75.4297 60.0338 75.8097 60.0338 76.4897C60.0338 77.1697 59.7138 77.5497 59.0338 77.5497H54.0338V75.4297ZM72.08 84.4897C75.08 84.4897 76.58 82.9897 76.58 79.9897V76.9897C76.58 73.9897 75.08 72.4897 72.08 72.4897H69.08C66.08 72.4897 64.58 73.9897 64.58 76.9897V79.9897C64.58 82.9897 66.08 84.4897 69.08 84.4897H72.08V81.5497H69.08C68.08 81.5497 67.58 81.0497 67.58 80.0497V76.9497C67.58 75.9497 68.08 75.4497 69.08 75.4497H72.08C73.08 75.4497 73.58 75.9497 73.58 76.9497V80.0497C73.58 81.0497 73.08 81.5497 72.08 81.5497V84.4897ZM85.6262 84.4897V75.4097H90.1262V72.4897H78.1262V75.4097H82.6262V84.4897H85.6262ZM98.86 84.4897C101.86 84.4897 103.36 82.9897 103.36 79.9897V76.9897C103.36 73.9897 101.86 72.4897 98.86 72.4897H95.86C92.86 72.4897 91.36 73.9897 91.36 76.9897V79.9897C91.36 82.9897 92.86 84.4897 95.86 84.4897H98.86V81.5497H95.86C94.86 81.5497 94.36 81.0497 94.36 80.0497V76.9497C94.36 75.9497 94.86 75.4497 95.86 75.4497H98.86C99.86 75.4497 100.36 75.9497 100.36 76.9497V80.0497C100.36 81.0497 99.86 81.5497 98.86 81.5497V84.4897ZM116.906 81.5297H109.406C108.406 81.5297 107.906 81.0297 107.906 80.0297V76.9497C107.906 75.9497 108.406 75.4497 109.406 75.4497H116.906V72.4897H109.406C106.406 72.4897 104.906 73.9897 104.906 76.9897V79.9897C104.906 82.9897 106.406 84.4897 109.406 84.4897H116.906V81.5297ZM126.05 84.4897C129.05 84.4897 130.55 82.9897 130.55 79.9897V76.9897C130.55 73.9897 129.05 72.4897 126.05 72.4897H123.05C120.05 72.4897 118.55 73.9897 118.55 76.9897V79.9897C118.55 82.9897 120.05 84.4897 123.05 84.4897H126.05V81.5497H123.05C122.05 81.5497 121.55 81.0497 121.55 80.0497V76.9497C121.55 75.9497 122.05 75.4497 123.05 75.4497H126.05C127.05 75.4497 127.55 75.9497 127.55 76.9497V80.0497C127.55 81.0497 127.05 81.5497 126.05 81.5497V84.4897ZM132.096 72.4897V84.4897H143.096V81.5497H135.096V72.4897H132.096Z" fill="url(#paint4_linear_359_5269)"/>
<defs>
<linearGradient id="paint0_linear_359_5269" x1="73.4607" y1="6.30307" x2="111.54" y2="6.30307" gradientUnits="userSpaceOnUse">
<stop stop-color="#FFE200"/>
<stop offset="0.2" stop-color="#FF870A"/>
<stop offset="0.4" stop-color="#FF9200"/>
<stop offset="0.6" stop-color="#FF6B26"/>
<stop offset="0.8" stop-color="#FF3E54"/>
<stop offset="1" stop-color="#FF0093"/>
</linearGradient>
<linearGradient id="paint1_linear_359_5269" x1="73.4607" y1="10.3032" x2="111.54" y2="10.3032" gradientUnits="userSpaceOnUse">
<stop stop-color="#FFE200"/>
<stop offset="0.2" stop-color="#FF870A"/>
<stop offset="0.4" stop-color="#FF9200"/>
<stop offset="0.6" stop-color="#FF6B26"/>
<stop offset="0.8" stop-color="#FF3E54"/>
<stop offset="1" stop-color="#FF0093"/>
</linearGradient>
<linearGradient id="paint2_linear_359_5269" x1="92.46" y1="16.7448" x2="92.46" y2="43.7448" gradientUnits="userSpaceOnUse">
<stop stop-color="#00DAEE"/>
<stop offset="0.2" stop-color="#348CFF"/>
<stop offset="0.4" stop-color="#3981FC"/>
<stop offset="0.6" stop-color="#4765F5"/>
<stop offset="0.8" stop-color="#5F38EA"/>
<stop offset="1" stop-color="#652DE8"/>
</linearGradient>
<linearGradient id="paint3_linear_359_5269" x1="10" y1="62.0655" x2="175" y2="62.0655" gradientUnits="userSpaceOnUse">
<stop stop-color="#FFE200"/>
<stop offset="0.2" stop-color="#FF870A"/>
<stop offset="0.4" stop-color="#FF9200"/>
<stop offset="0.6" stop-color="#FF6B26"/>
<stop offset="0.8" stop-color="#FF3E54"/>
<stop offset="1" stop-color="#FF0093"/>
</linearGradient>
<linearGradient id="paint4_linear_359_5269" x1="92.5" y1="69.6692" x2="92.5" y2="88.6692" gradientUnits="userSpaceOnUse">
<stop stop-color="#00DAEE"/>
<stop offset="0.2" stop-color="#348CFF"/>
<stop offset="0.4" stop-color="#3981FC"/>
<stop offset="0.6" stop-color="#4765F5"/>
<stop offset="0.8" stop-color="#5F38EA"/>
<stop offset="1" stop-color="#652DE8"/>
</linearGradient>
</defs>
</svg>
