<svg width="39" height="45" viewBox="0 0 39 45" fill="none" xmlns="http://www.w3.org/2000/svg">
<path d="M19.0345 2.75522L38.0801 13.7552V11.8067L28.5007 6.25522L19.0345 0.755127L0.000732422 11.7552V13.7552L19.0345 2.75522Z" fill="url(#paint0_linear_362_5381)"/>
<path d="M19.0345 6.75534L38.0801 17.7553V15.8068L28.5007 10.2553L19.0345 4.75525L0.000732422 15.7553V17.7553L19.0345 6.75534Z" fill="url(#paint1_linear_362_5381)"/>
<path d="M24.1688 32.6121V25.1422L30.6193 21.4086V16.7688L20.3625 10.8258V34.7819M13.9111 26.2552V32.6075L17.7175 34.7829V24.0035M17.7175 21.4095V10.8267L13.9111 13.038V20.5033L11.2293 22.0257V14.5603L7.46069 16.7706V28.8758L11.2293 31.0511V25.144M24.1679 22.0266V16.1195L26.8498 17.6778V20.5042L24.1679 22.0266Z" fill="url(#paint2_linear_362_5381)"/>
<path d="M38 19.8367V33.6285L23.536 41.7146L19.0092 44.2449L14.4824 41.7146L0 33.6187V19.8269L4.54796 17.2449V31.1L19.0092 39.1834L33.452 31.1098V17.2556L38 19.8367Z" fill="url(#paint3_linear_362_5381)"/>
<defs>
<linearGradient id="paint0_linear_362_5381" x1="0.000732422" y1="7.0582" x2="38.0801" y2="7.0582" gradientUnits="userSpaceOnUse">
<stop stop-color="#FFE200"/>
<stop offset="0.2" stop-color="#FF870A"/>
<stop offset="0.4" stop-color="#FF9200"/>
<stop offset="0.6" stop-color="#FF6B26"/>
<stop offset="0.8" stop-color="#FF3E54"/>
<stop offset="1" stop-color="#FF0093"/>
</linearGradient>
<linearGradient id="paint1_linear_362_5381" x1="0.000732422" y1="11.0583" x2="38.0801" y2="11.0583" gradientUnits="userSpaceOnUse">
<stop stop-color="#FFE200"/>
<stop offset="0.2" stop-color="#FF870A"/>
<stop offset="0.4" stop-color="#FF9200"/>
<stop offset="0.6" stop-color="#FF6B26"/>
<stop offset="0.8" stop-color="#FF3E54"/>
<stop offset="1" stop-color="#FF0093"/>
</linearGradient>
<linearGradient id="paint2_linear_362_5381" x1="7.46069" y1="22.4413" x2="30.6193" y2="22.4413" gradientUnits="userSpaceOnUse">
<stop stop-color="#FFE200"/>
<stop offset="0.2" stop-color="#FF870A"/>
<stop offset="0.4" stop-color="#FF9200"/>
<stop offset="0.6" stop-color="#FF6B26"/>
<stop offset="0.8" stop-color="#FF3E54"/>
<stop offset="1" stop-color="#FF0093"/>
</linearGradient>
<linearGradient id="paint3_linear_362_5381" x1="19" y1="17.4999" x2="19" y2="44.4999" gradientUnits="userSpaceOnUse">
<stop stop-color="#00DAEE"/>
<stop offset="0.2" stop-color="#348CFF"/>
<stop offset="0.4" stop-color="#3981FC"/>
<stop offset="0.6" stop-color="#4765F5"/>
<stop offset="0.8" stop-color="#5F38EA"/>
<stop offset="1" stop-color="#652DE8"/>
</linearGradient>
</defs>
</svg>
